<svg id="Layer_1" data-name="Layer 1" xmlns="http://www.w3.org/2000/svg" viewBox="0 0 997.99 578.62"><defs><style>.cls-1{fill:#fff;}.cls-2{fill:#a6e51c;}.cls-3{fill:#00b8ff;}.cls-4{fill:#ff7c16;}.cls-5{fill:#f016b4;}</style></defs><path class="cls-1" d="M1129.47,342.86l-.12,0Z" transform="translate(-160.07 -129.92)"/><path class="cls-1" d="M1125.68,343.48l-.93.07Z" transform="translate(-160.07 -129.92)"/><path class="cls-1" d="M1122.87,343.62c.48,0,1,0,1.42,0-.47,0-1,0-1.43,0Z" transform="translate(-160.07 -129.92)"/><path class="cls-1" d="M1128.28,343.11l-.4.07Z" transform="translate(-160.07 -129.92)"/><path class="cls-1" d="M1127,343.32l-.66.08Z" transform="translate(-160.07 -129.92)"/><path class="cls-1" d="M1129.35,342.89l-1.07.22Z" transform="translate(-160.07 -129.92)"/><path class="cls-1" d="M1127.88,343.18l-.87.14Z" transform="translate(-160.07 -129.92)"/><path class="cls-1" d="M1124.75,343.55l-.46,0Z" transform="translate(-160.07 -129.92)"/><path class="cls-1" d="M1126.35,343.4l-.67.08Z" transform="translate(-160.07 -129.92)"/><path class="cls-1" d="M1129.47,342.86a28.85,28.85,0,0,0,11.67-5.71l.58-.57A28.81,28.81,0,0,1,1129.47,342.86Z" transform="translate(-160.07 -129.92)"/><path class="cls-1" d="M1148.87,475.61l-76.17-70.55,68.44-67.91a28.85,28.85,0,0,1-11.67,5.71l-.12,0-1.07.22-.4.07-.87.14-.66.08-.67.08-.93.07-.46,0c-.47,0-.94,0-1.42,0h0A28.83,28.83,0,0,1,1102,294.76l-84.9,84V216.31a28.5,28.5,0,1,0-57,0l0,228.11a25,25,0,0,1-50-1.46V412.43c0-62.63-48-111.69-109.35-111.69a110,110,0,0,0-71.85,26.07,82.74,82.74,0,0,0-63.11-29.24c-45.5,0-82.69,37-82.69,82.52v62a25,25,0,0,1-50,0V329.7a28.5,28.5,0,1,0-57,0v71.72c0,29.56-8,65.67-52.22,65.67-43.28,0-56.86-35.8-56.86-65.67V315.26c37.46-27.73,72.44-59.41,83.1-88.67,11.31-30.47,6.21-61.13-13.32-80.05-17.82-17.26-43.64-21.36-69-11-52.56,21.49-57.36,94.53-57.73,102.78,0,.34,0,.67,0,1,0,1.93-.21,20.89-.37,46-8.62,5.93-126.48,77-134.89,81.54a28.79,28.79,0,0,1,26.07,51.3c5.67-3,55.16-29.48,108.64-63.72,0,20.31,0,58.73,0,58.73.19,61.43,50.91,111.35,112.38,111.35,26,0,51.74-11.22,72.16-31.14A82.54,82.54,0,0,0,641.07,442.1v-62A24.95,24.95,0,0,1,691,380V491.11a28.67,28.67,0,0,1,26.47-25.63,12.91,12.91,0,0,1,1.76-.13,29.15,29.15,0,0,1,5.87.6,28.67,28.67,0,0,1,23,27.37l.28-86.42c1.87-28,24-48.63,52.61-48.63,29.07,0,52.08,23.78,52.08,54.16V443a82.42,82.42,0,0,0,82.28,82.52c45.5,0,81.72-37,81.72-82.52V432.37l92.47,85.44a28.84,28.84,0,0,0,39.33-42.2Zm-781.39-235c.92-15.56,8.21-46.13,22-51.78,3.95-1.62,6.48-1.23,7.25-1,2.48.86,5,6.69-.61,18.76a2,2,0,0,0-.1.26c-1.45,4-7.47,16.51-28.57,34A2.17,2.17,0,0,1,367.48,240.6Z" transform="translate(-160.07 -129.92)"/><circle class="cls-2" cx="28.79" cy="262.13" r="28.79"/><circle class="cls-3" cx="344.79" cy="85.42" r="28.79"/><circle class="cls-4" cx="559.4" cy="363.13" r="28.65"/><ellipse class="cls-5" cx="961.79" cy="185.84" rx="28.99" ry="28.86"/><path class="cls-1" d="M397.37,652.41c-7.68,21.67-22.49,27.86-47.12,27.86H311.62a1.84,1.84,0,0,1-1.89-1.88v-.27L321.44,583a2.48,2.48,0,0,1,2.43-2.15H362.5c14.54,0,25,2.15,31.77,8.34,5.79,5.39,8.88,13.6,8.88,26.12,0,11.3-2,26.52-5.78,37.15m-15.22-52.36c-4.31-5.66-12-6.87-23.15-6.87H336.52l-9.15,74.71h22.48c17.5-.13,27.32-3.5,32.57-21.81a110.45,110.45,0,0,0,3.9-29.07c0-7.94-1.34-13.33-4.17-17" transform="translate(-160.07 -129.92)"/><path class="cls-1" d="M429,653.89h-.67v1.62c0,.4-.14.67-.14.94,0,5.79,1.89,9.42,5.66,11.71,3.5,2,8.34,2.82,14.13,2.82,7.14,0,14.54-2,19.79-3.36a1.24,1.24,0,0,1,.67-.13c.68,0,1.22.4,1.49,1.61l1.07,6.33v.4a2,2,0,0,1-1.75,2A79.64,79.64,0,0,1,443.55,682c-26,0-30.55-13.6-30.55-29.22,0-14.4,4.57-28.8,10.49-35.4,6.2-6.86,15.62-9.56,26.92-9.56,15.89,0,27.87,4.31,27.87,22.22,0,22.21-17.36,23.82-49.27,23.82m20.06-35.27c-15.61,0-18.84,12.38-19.79,25.31,22.48-1.35,34.06,0,34.06-13.2,0-8.74-5.79-12.11-14.27-12.11" transform="translate(-160.07 -129.92)"/><path class="cls-1" d="M527,678.12a3.28,3.28,0,0,1-3,2.15H503.6a2.36,2.36,0,0,1-2.43-2.15l-12.65-65.69V612a2.21,2.21,0,0,1,2.16-2.43h11.44c1.48,0,2,.68,2.29,2l9,58.56h3.5l21.8-58.56a2.76,2.76,0,0,1,2.83-2H553.4a1.63,1.63,0,0,1,1.75,1.75,1.77,1.77,0,0,1-.13.81Z" transform="translate(-160.07 -129.92)"/><path class="cls-1" d="M574.82,653.89h-.68v1.62c0,.4-.13.67-.13.94,0,5.79,1.88,9.42,5.65,11.71,3.5,2,8.35,2.82,14.14,2.82,7.13,0,14.53-2,19.78-3.36a1.27,1.27,0,0,1,.68-.13c.67,0,1.21.4,1.48,1.61l1.07,6.33v.4a2,2,0,0,1-1.74,2A79.68,79.68,0,0,1,589.36,682c-26,0-30.56-13.6-30.56-29.22,0-14.4,4.58-28.8,10.5-35.4,6.19-6.86,15.61-9.56,26.92-9.56,15.88,0,27.87,4.31,27.87,22.22,0,22.21-17.37,23.82-49.27,23.82m20-35.27c-15.61,0-18.84,12.38-19.78,25.31,22.48-1.35,34,0,34-13.2,0-8.74-5.79-12.11-14.27-12.11" transform="translate(-160.07 -129.92)"/><path class="cls-1" d="M662.32,677.85a2,2,0,0,1-1.34,1.88,31.18,31.18,0,0,1-11.31,1.76c-5,0-8.61-1.08-11.17-3.5-2.29-2-3.5-5.12-3.5-9.16a85.83,85.83,0,0,1,.94-10.23l9.29-75.11a2.24,2.24,0,0,1,2.16-2.29l11.3-2.16h.54a1.46,1.46,0,0,1,1.48,1.62v.41l-9.56,77.26a63.32,63.32,0,0,0-.67,7.27,5.42,5.42,0,0,0,.94,3.23,6.13,6.13,0,0,0,4,1.35,18.71,18.71,0,0,0,4.71-.54h.54c.67,0,1.08.27,1.21,1.21l.4,6.73Z" transform="translate(-160.07 -129.92)"/><path class="cls-1" d="M738.65,656.32C735,671.25,726.81,682,703.25,682c-11.58,0-18.71-2.57-23-7-4.57-4.58-6.06-11.17-6.06-18.84A96.83,96.83,0,0,1,677.4,632c3.91-14.13,12.39-24.09,35-24.09,11.85,0,19.12,2.69,23.43,7.26s5.65,11.18,5.65,18.85a103.47,103.47,0,0,1-2.83,22.35m-15.48-33.39c-2.15-2.69-5.92-4-12.12-4-12.11,0-16.28,5.25-18.43,14.54a115.64,115.64,0,0,0-2.83,23.42c0,4.85.81,8.61,3.5,11,2.29,2,5.79,3.09,11.31,3.09,13.32,0,17.09-6.32,19.11-17.63.94-5.92,2.15-13.73,2.15-19.52,0-4.71-.53-8.34-2.69-10.9" transform="translate(-160.07 -129.92)"/><path class="cls-1" d="M815.93,660.49C811.62,674.21,802.74,682,784.16,682a73.7,73.7,0,0,1-19.25-2.43l.54,8.07-2,16.3a2.49,2.49,0,0,1-2.29,2.42L750,708.54h-.54a1.48,1.48,0,0,1-1.61-1.61.52.52,0,0,1,.13-.41l10.23-83.59c.81-6.46,2.56-8.62,9.15-10.77a92.39,92.39,0,0,1,27.47-4.3c9.82,0,16,2.28,19.92,6.45,4.17,4.45,5.38,10.78,5.38,19.25a91.48,91.48,0,0,1-4.17,26.93m-14.14-37.7c-2.42-3.09-6.32-3.63-11.84-3.63-6.74,0-16.42,2.56-16.42,2.56l-5.79,47.52a53.64,53.64,0,0,0,14.81,1.88c10.76,0,16.15-3.63,19.11-15.75a87.88,87.88,0,0,0,2.69-20.59c0-5.93-.8-9.56-2.56-12" transform="translate(-160.07 -129.92)"/><path class="cls-1" d="M944,632.22l-5.65,46a2.13,2.13,0,0,1-2.29,2H925a1.66,1.66,0,0,1-1.88-1.75v-.27l5.65-45.76c.14-1.76.41-3.64.41-5.39,0-2.69-.54-4.58-1.89-5.92-1.61-1.62-4.31-2.29-8.21-2.29a90.69,90.69,0,0,0-20.32,2.83l-7,56.53a2.09,2.09,0,0,1-2.15,2H878.4a1.73,1.73,0,0,1-1.89-1.75v-.27l5.79-46.57c.14-1.48.41-3,.41-4.58,0-2.82-.54-4.71-1.89-6.05-1.62-1.49-4.17-2.16-8.07-2.16a94.76,94.76,0,0,0-20.6,2.83l-7,56.53a2.1,2.1,0,0,1-2.15,2H831.82a1.67,1.67,0,0,1-1.88-1.75v-.27l7-57.2c.67-5.25,2.56-7.14,10.1-9.43a123.57,123.57,0,0,1,28.26-3.76c8.48,0,14.27,1.74,17.5,4.84,5.52-2,19.25-4.84,29.21-4.84,8.61,0,14.94,1.21,18.71,4.71,2.69,2.42,4,6,4,11.17a59.48,59.48,0,0,1-.81,8.48" transform="translate(-160.07 -129.92)"/><path class="cls-1" d="M973.45,653.89h-.67v1.62c0,.4-.14.67-.14.94,0,5.79,1.89,9.42,5.66,11.71,3.5,2,8.34,2.82,14.13,2.82,7.14,0,14.54-2,19.79-3.36a1.24,1.24,0,0,1,.67-.13c.68,0,1.22.4,1.49,1.61l1.07,6.33v.4a2,2,0,0,1-1.75,2A79.64,79.64,0,0,1,988,682c-26,0-30.55-13.6-30.55-29.22,0-14.4,4.57-28.8,10.49-35.4,6.2-6.86,15.62-9.56,26.92-9.56,15.89,0,27.87,4.31,27.87,22.22,0,22.21-17.36,23.82-49.27,23.82m20.06-35.27c-15.61,0-18.84,12.38-19.79,25.31,22.48-1.35,34.06,0,34.06-13.2,0-8.74-5.79-12.11-14.27-12.11" transform="translate(-160.07 -129.92)"/><path class="cls-1" d="M1099.32,632.35l-5.65,45.9a2.1,2.1,0,0,1-2.16,2h-11.17a1.67,1.67,0,0,1-1.89-1.75v-.27l5.66-45.9a40,40,0,0,0,.54-5.65,7.57,7.57,0,0,0-1.89-5.52c-1.61-1.62-4.17-2.29-8.07-2.29a90.84,90.84,0,0,0-20.33,2.83l-7,56.53a2.1,2.1,0,0,1-2.15,2H1034a1.67,1.67,0,0,1-1.88-1.75v-.27l7-57.2c.67-5.25,2.56-7.14,10.1-9.43a122.35,122.35,0,0,1,28.13-3.76c8.48,0,14.67,1.21,18.44,4.44,2.83,2.42,4.31,5.92,4.31,11a68.54,68.54,0,0,1-.81,9" transform="translate(-160.07 -129.92)"/><path class="cls-1" d="M1156.54,619a2.21,2.21,0,0,1-2.28,2H1133.8l-4.72,37.69c-.13,1.75-.4,3.5-.4,5.11a6,6,0,0,0,1.48,4.31c1.34,1.48,3.91,2.15,7.54,2.15a56.12,56.12,0,0,0,11.17-1.48h.54c.81,0,1.21.54,1.35,1.35l.67,6.59V677a2.38,2.38,0,0,1-1.75,2.15,61.88,61.88,0,0,1-17,2.43c-7.4,0-12.52-1.48-15.75-4.85-2.29-2.56-3.5-6.06-3.5-10.77a71.18,71.18,0,0,1,.4-7.67l8.35-68a2.48,2.48,0,0,1,2.42-2.3l11.17-2.28h.54c1.08,0,1.48.67,1.48,1.62v.39l-2.69,21.81h20.46a1.73,1.73,0,0,1,1.88,1.75v.27Z" transform="translate(-160.07 -129.92)"/></svg>